<svg xmlns="http://www.w3.org/2000/svg" enable-background="new 0 0 512 512" viewBox="0 0 512 512" id="datascience">
  <g fill="#000000" class="color000000 svgShape">
    <g fill="#000000" class="color000000 svgShape">
      <g fill="#000000" class="color000000 svgShape">
        <path fill="#283654" d="M468.98,317.576c-3.918,1.346-6.003,5.611-4.658,9.529c8.022,23.365,7.387,43.367-1.842,57.846
				c-15.443,24.245-53.742,32.563-105.754,23.258c9.333-26.973,15.874-57.083,19.61-88.457
				c20.067-16.421,38.37-33.944,54.033-51.979c8.575,11.015,16.037,22.132,22.151,33.202c2.011,3.64,6.581,4.933,10.191,2.939
				c3.626-2.003,4.941-6.565,2.939-10.191c-6.982-12.642-15.567-25.288-25.471-37.753c30.882-38.982,61.036-96.034,34.953-136.98
				c-5.665-8.894-13.626-16.182-23.662-21.663c-3.635-1.983-8.191-0.647-10.177,2.988s-0.648,8.191,2.987,10.177
				c7.787,4.253,13.911,9.824,18.2,16.558c16.809,26.386,4.768,69.782-32.115,117.128c-15.666-18.028-33.965-35.539-54.028-51.949
				c-3.731-31.331-10.265-61.429-19.61-88.434c23.152-4.108,44.279-4.765,61.511-1.86c4.089,0.692,7.954-2.064,8.643-6.148
				c0.688-4.084-2.064-7.954-6.148-8.643c-19.879-3.352-43.18-2.548-69.33,2.37C328.792,33.165,295.713,1,260.066,1
				c-13.592,0-26.871,4.605-39.467,13.687c-3.359,2.422-4.119,7.11-1.697,10.47c2.424,3.36,7.11,4.12,10.471,1.697
				C239.361,19.652,249.688,16,260.066,16c28.741,0,56.334,27.831,76.432,76.692c-24.955,5.954-50.815,15.163-76.441,26.902
				c-25.572-11.72-51.422-20.929-76.437-26.895c7.566-18.383,16.281-33.928,25.961-46.296c2.553-3.262,1.979-7.976-1.283-10.528
				c-3.261-2.553-7.975-1.979-10.529,1.283c-11.739,14.998-21.315,33.006-29.048,52.353c-59.677-11.206-104.573-0.586-123.721,29.48
				c-8.182,12.843-11.268,28.373-9.173,46.157c0.483,4.114,4.211,7.049,8.325,6.571c4.114-0.485,7.056-4.212,6.571-8.326
				c-1.68-14.263,0.65-26.491,6.928-36.343c15.442-24.246,53.747-32.566,105.766-23.256c-10.052,29.192-16.278,60.401-19.625,88.425
				c-19.999,16.37-38.297,33.878-54.019,51.986c-14.485-18.579-25.209-36.615-31.906-53.709c-1.512-3.857-5.865-5.758-9.72-4.248
				c-3.856,1.511-5.758,5.863-4.247,9.719c7.538,19.238,19.665,39.411,36.068,60.033c-19.587,24.659-33.391,49.281-40.047,71.502
				c-16.243,54.232,10.104,94.827,73.882,99.003c4.158,0.267,7.705-2.883,7.975-6.994c0.271-4.134-2.861-7.703-6.994-7.975
				c-19.14-1.253-44.587-6.882-57.135-26.584c-16.811-26.39-4.765-69.794,32.13-117.147c15.737,18.125,34.034,35.629,54.016,51.983
				c3.652,30.759,10.078,60.881,19.622,88.43c-6.729,1.19-13.366,2.115-19.877,2.737c-4.123,0.394-7.146,4.055-6.753,8.179
				c0.394,4.133,4.07,7.151,8.179,6.753c7.778-0.742,15.714-1.88,23.767-3.385c22.612,56.341,55.688,88.5,91.331,88.5
				c10.072,0,20.036-2.55,29.616-7.579c3.667-1.926,5.079-6.459,3.154-10.127c-1.926-3.668-6.461-5.077-10.127-3.154
				c-7.406,3.889-15.025,5.86-22.644,5.86c-28.738,0-56.327-27.823-76.424-76.672c24.992-5.942,50.854-15.169,76.453-26.913
				c25.639,11.743,51.491,20.948,76.399,26.893c-9.194,22.279-20.295,40.786-32.366,53.841c-2.812,3.041-2.626,7.786,0.415,10.599
				c3.037,2.809,7.783,2.629,10.599-0.415c13.936-15.072,26.117-35.526,36.26-60.846c44.264,8.246,100.074,7.661,123.728-29.475
				c11.769-18.465,12.938-42.939,3.379-70.777C477.164,318.314,472.893,316.234,468.98,317.576z M420.73,255.979
				c-12.444,14.544-26.708,28.781-42.295,42.37c2.174-28.013,2.178-56.675,0.005-84.707
				C394.048,227.246,408.311,241.474,420.73,255.979z M157.998,200.018c31.175-24.889,66.349-46.89,102.09-63.878
				c35.936,17.095,71.062,39.173,102.037,63.895c3.926,36.788,3.916,75.179-0.007,111.923
				c-31.057,24.793-66.206,46.855-102.01,63.908c-35.723-16.979-70.901-38.972-102.091-63.868
				C154.091,275.265,154.066,236.855,157.998,200.018z M341.897,106.838c7.822,22.153,13.662,46.579,17.52,72.131
				c-25.482-19.155-53.208-36.442-81.616-50.815C299.419,118.938,321.035,111.678,341.897,106.838z M178.235,106.839
				c20.985,4.865,42.583,12.128,64.092,21.297c-28.352,14.336-56.083,31.604-81.616,50.806
				C164.567,153.424,170.405,129.01,178.235,106.839z M99.419,256c12.498-14.611,26.755-28.84,42.28-42.383
				c-2.116,27.381-2.206,56.148,0.005,84.771C126.181,284.847,111.923,270.618,99.419,256z M178.246,405.189
				c-7.801-22.09-13.649-46.516-17.518-72.12c25.564,19.22,53.309,36.485,81.65,50.811
				C220.783,393.101,199.158,400.363,178.246,405.189z M359.411,333.025c-3.863,25.588-9.706,50.019-17.514,72.137
				c-20.838-4.835-42.441-12.09-64.057-21.303C306.218,369.486,333.934,352.187,359.411,333.025z" class="color283954 svgShape"></path>
      </g>
      <g fill="#000000" class="color000000 svgShape">
        <path fill="#2563eb" d="M260.066 176.833c-46.033 0-80.746 17.394-80.746 40.46v73.245c0 23.066 34.713 40.461 80.746 40.461 46.032 0 80.745-17.395 80.745-40.461v-73.245C340.812 194.228 306.099 176.833 260.066 176.833zM325.812 253.917c0 12.019-28.116 25.46-65.745 25.46s-65.746-13.441-65.746-25.46v-12.548c31.322 21.893 100.181 21.885 131.491 0V253.917zM260.066 191.833c37.629 0 65.745 13.442 65.745 25.46s-28.116 25.461-65.745 25.461-65.746-13.442-65.746-25.461S222.438 191.833 260.066 191.833zM260.066 316c-37.629 0-65.746-13.442-65.746-25.461v-12.547c31.322 21.892 100.181 21.884 131.491 0v12.547C325.812 302.558 297.695 316 260.066 316zM213.602 53.035c12.406 0 22.5-10.093 22.5-22.5s-10.094-22.5-22.5-22.5-22.5 10.093-22.5 22.5S201.195 53.035 213.602 53.035zM213.602 23.035c4.136 0 7.5 3.364 7.5 7.5s-3.364 7.5-7.5 7.5-7.5-3.364-7.5-7.5S209.466 23.035 213.602 23.035zM465.851 288.241c-12.406 0-22.5 10.094-22.5 22.5s10.094 22.5 22.5 22.5 22.5-10.094 22.5-22.5S478.257 288.241 465.851 288.241zM465.851 318.241c-4.136 0-7.5-3.364-7.5-7.5s3.364-7.5 7.5-7.5 7.5 3.364 7.5 7.5S469.986 318.241 465.851 318.241zM298.691 466c-12.406 0-22.5 10.094-22.5 22.5s10.094 22.5 22.5 22.5 22.5-10.094 22.5-22.5S311.098 466 298.691 466zM298.691 496c-4.136 0-7.5-3.364-7.5-7.5s3.364-7.5 7.5-7.5 7.5 3.364 7.5 7.5S302.827 496 298.691 496zM456.566 98.063c0-12.407-10.094-22.5-22.5-22.5s-22.5 10.093-22.5 22.5 10.094 22.5 22.5 22.5S456.566 110.469 456.566 98.063zM434.066 105.563c-4.136 0-7.5-3.364-7.5-7.5s3.364-7.5 7.5-7.5 7.5 3.364 7.5 7.5S438.202 105.563 434.066 105.563zM129.284 396.82c-12.406 0-22.5 10.094-22.5 22.5s10.094 22.5 22.5 22.5 22.5-10.094 22.5-22.5S141.69 396.82 129.284 396.82zM129.284 426.82c-4.136 0-7.5-3.364-7.5-7.5s3.364-7.5 7.5-7.5 7.5 3.364 7.5 7.5S133.42 426.82 129.284 426.82zM46.149 156.5c-12.406 0-22.5 10.093-22.5 22.5s10.094 22.5 22.5 22.5 22.5-10.093 22.5-22.5S58.556 156.5 46.149 156.5zM46.149 186.5c-4.136 0-7.5-3.364-7.5-7.5s3.364-7.5 7.5-7.5 7.5 3.364 7.5 7.5S50.285 186.5 46.149 186.5z" class="color3a98ff svgShape"></path>
      </g>
    </g>
  </g>
</svg>
