<svg xmlns="http://www.w3.org/2000/svg" viewBox="0 0 64 64" id="Finance">
  <path d="M32.8,64a8.35,8.35,0,0,1-2.87-.51L14.3,57.75a6.09,6.09,0,0,0-2.1-.38H10a.49.49,0,0,1,0-1h2.2a7.29,7.29,0,0,1,2.44.43l15.63,5.75a7.42,7.42,0,0,0,6.7-.84L60.72,45.5c1.65-1.18,2-2.37,1-4-1.22-1.65-3.35-.95-4-.7L42,48.55a.49.49,0,1,1-.43-.89l15.77-7.72c2.11-.86,4.09-.45,5.2,1.06,1.8,3.09-.53,4.76-1.29,5.31L37.52,62.55A8.34,8.34,0,0,1,32.8,64Z" fill="#2563eb" class="color000000 svgShape"></path>
  <path d="M38.22,52.27H29.46a.49.49,0,0,1,0-1h8.63a3,3,0,0,0,2.27-.73,3.08,3.08,0,0,0,1-2.21,3.26,3.26,0,0,0-.07-.78,3.19,3.19,0,0,0-3-2.47l-10.73-.25a7.32,7.32,0,0,1-3.05-.74l-9.2-4.43A6.44,6.44,0,0,0,12.47,39H10a.49.49,0,0,1,0-1h2.47a7.5,7.5,0,0,1,3.22.73l9.2,4.44a6.36,6.36,0,0,0,2.64.63l10.73.26a4.15,4.15,0,0,1,4,3.25,4.22,4.22,0,0,1,.1,1A4.12,4.12,0,0,1,41,51.27,3.89,3.89,0,0,1,38.22,52.27Z" fill="#2563eb" class="color000000 svgShape"></path>
  <path d="M8.61 59.09h-6A1.89 1.89 0 0 1 .75 57.21v-19a1.89 1.89 0 0 1 1.89-1.88h6a1.88 1.88 0 0 1 1.88 1.88v19A1.88 1.88 0 0 1 8.61 59.09zm-6-21.73a.9.9 0 0 0-.9.9v19a.9.9 0 0 0 .9.9h6a.9.9 0 0 0 .9-.9v-19a.9.9 0 0 0-.9-.9zM49.08 45.05a.48.48 0 0 1-.44-.28c-.67-1.34-2.11-2.39-4.4-3.21a16.86 16.86 0 0 1-3.69-1.87c-.67-.41-1.42-.89-2.43-1.41a7.37 7.37 0 0 0-6.85-.16 19.75 19.75 0 0 1-4.63 1.43c-.92.19-2.06.44-3.54.82a6.2 6.2 0 0 0-2.61 1.49.49.49 0 1 1-.66-.72 7.12 7.12 0 0 1 3-1.72c1.51-.39 2.65-.64 3.58-.84a18.59 18.59 0 0 0 4.43-1.35 8.44 8.44 0 0 1 7.72.17c1 .55 1.81 1 2.49 1.46a16.07 16.07 0 0 0 3.5 1.77c2.54.91 4.16 2.12 5 3.71a.5.5 0 0 1-.22.66A.59.59 0 0 1 49.08 45.05zM35.84 31.35a.52.52 0 0 1-.49-.52A25.6 25.6 0 0 1 42.71 15.5a.49.49 0 0 1 .7 0 .48.48 0 0 1 0 .69 24.68 24.68 0 0 0-7.07 14.69A.47.47 0 0 1 35.84 31.35z" fill="#2563eb" class="color000000 svgShape"></path>
  <path d="M35.62 37.43a.49.49 0 0 1-.49-.46 31.83 31.83 0 0 1 0-4.48A.5.5 0 0 1 35.7 32a.49.49 0 0 1 .45.53 33 33 0 0 0 0 4.34.49.49 0 0 1-.46.52zM33 37.52h0a.49.49 0 0 1-.48-.5 45.19 45.19 0 0 1 .86-7.56.49.49 0 0 1 1 .19 43.41 43.41 0 0 0-.85 7.4A.48.48 0 0 1 33 37.52zM34.3 28.18l-.12 0a.48.48 0 0 1-.36-.59A34.31 34.31 0 0 1 35 23.92c-.82-3.35-3.78-4.62-5.49-5.08a.49.49 0 0 1 .26-.95c1.57.42 5.31 1.84 6.22 5.95a.39.39 0 0 1 0 .28 34.35 34.35 0 0 0-1.14 3.69A.5.5 0 0 1 34.3 28.18z" fill="#2563eb" class="color000000 svgShape"></path>
  <path d="M36.61,21.84a.51.51,0,0,1-.44-.26,9.65,9.65,0,0,0-5.24-4.37.49.49,0,0,1-.29-.63.5.5,0,0,1,.63-.29,10.88,10.88,0,0,1,5.32,4.05A26.2,26.2,0,0,1,41,14.39a.47.47,0,0,1,.69,0,.48.48,0,0,1,0,.69,25.55,25.55,0,0,0-4.69,6.49A.45.45,0,0,1,36.61,21.84Z" fill="#2563eb" class="color000000 svgShape"></path>
  <path d="M46.66,17.19a8.6,8.6,0,1,1,8.6-8.6A8.6,8.6,0,0,1,46.66,17.19ZM46.66,1a7.61,7.61,0,1,0,7.61,7.61A7.63,7.63,0,0,0,46.66,1Z" fill="#2563eb" class="color000000 svgShape"></path>
  <path d="M46.66,15.21a6.62,6.62,0,1,1,6.62-6.62A6.63,6.63,0,0,1,46.66,15.21ZM46.66,3a5.64,5.64,0,1,0,5.63,5.63A5.64,5.64,0,0,0,46.66,3Z" fill="#2563eb" class="color000000 svgShape"></path>
  <path d="M48.63 9.88a1.74 1.74 0 0 1-.14.69 1.61 1.61 0 0 1-.41.53 2.23 2.23 0 0 1-.65.35 2.74 2.74 0 0 1-.85.15l-.1 1 0 0a.08.08 0 0 1 0 0l-.1 0H46l-.1 0a.08.08 0 0 1 0-.05.08.08 0 0 1 0-.07l.1-1-.41-.08-.35-.09-.26-.11a.73.73 0 0 1-.15-.11.23.23 0 0 1-.07-.13 1.18 1.18 0 0 1 0-.22.69.69 0 0 1 0-.28.18.18 0 0 1 .05-.07h.07a.38.38 0 0 1 .18.07l.3.15.45.15a2.44 2.44 0 0 0 .65.07 1.69 1.69 0 0 0 1-.26.87.87 0 0 0 .35-.72.83.83 0 0 0-.13-.46 1 1 0 0 0-.34-.32 2.28 2.28 0 0 0-.47-.23l-.54-.2a5.31 5.31 0 0 1-.55-.23 2.13 2.13 0 0 1-.47-.31A1.39 1.39 0 0 1 45 7.74a1.48 1.48 0 0 1-.13-.67 1.47 1.47 0 0 1 .11-.59A1.27 1.27 0 0 1 45.26 6a1.77 1.77 0 0 1 .55-.34 2.44 2.44 0 0 1 .77-.16l.09-1a.08.08 0 0 1 0 0 .1.1 0 0 1 0 0l.09 0h.33a.24.24 0 0 1 .1 0 .08.08 0 0 1 0 0s0 0 0 .06l-.11 1a1.57 1.57 0 0 1 .3 0l.28.08a1.45 1.45 0 0 1 .25.1.49.49 0 0 1 .15.09l0 .07 0 .07s0 .06 0 .1a.53.53 0 0 1 0 .13.81.81 0 0 1 0 .16.3.3 0 0 1 0 .1l0 .06h-.06A.43.43 0 0 1 48 6.49l-.28-.13a3.14 3.14 0 0 0-.4-.13 2 2 0 0 0-.5-.06 2.12 2.12 0 0 0-.54.06 1 1 0 0 0-.36.17.62.62 0 0 0-.21.27.9.9 0 0 0-.06.34.81.81 0 0 0 .13.47 1.16 1.16 0 0 0 .34.32 2.12 2.12 0 0 0 .48.22l.54.2.55.22a2 2 0 0 1 .48.31 1.57 1.57 0 0 1 .34.46A1.51 1.51 0 0 1 48.63 9.88zM24.53 20.63A8.59 8.59 0 1 1 33.12 12 8.6 8.6 0 0 1 24.53 20.63zm0-16.2A7.61 7.61 0 1 0 32.14 12 7.61 7.61 0 0 0 24.53 4.43z" fill="#2563eb" class="color000000 svgShape"></path>
  <path d="M24.53,18.66A6.62,6.62,0,1,1,31.14,12,6.63,6.63,0,0,1,24.53,18.66Zm0-12.25A5.63,5.63,0,1,0,30.16,12,5.64,5.64,0,0,0,24.53,6.41Z" fill="#2563eb" class="color000000 svgShape"></path>
  <path d="M26.5 13.33a1.51 1.51 0 0 1-.15.68 1.41 1.41 0 0 1-.41.53 1.79 1.79 0 0 1-.64.35 3.21 3.21 0 0 1-.85.16l-.11 1s0 0 0 .06l0 0-.09 0h-.33a.29.29 0 0 1-.1 0 .1.1 0 0 1-.05 0s0-.05 0-.07l.11-1L23.4 15a2.31 2.31 0 0 1-.34-.1 1.27 1.27 0 0 1-.26-.11.74.74 0 0 1-.16-.1.31.31 0 0 1-.06-.13.72.72 0 0 1 0-.22 1 1 0 0 1 0-.18.36.36 0 0 1 0-.11s0 0 .05-.06l.08 0a.43.43 0 0 1 .17.07 2.09 2.09 0 0 0 .3.15 2.9 2.9 0 0 0 .45.16 3 3 0 0 0 .65.07 1.65 1.65 0 0 0 1-.27.83.83 0 0 0 .34-.71.79.79 0 0 0-.13-.47 1.12 1.12 0 0 0-.33-.32 2.68 2.68 0 0 0-.48-.23l-.54-.19L23.63 12a2 2 0 0 1-.48-.32 1.47 1.47 0 0 1-.33-.46 1.69 1.69 0 0 1 0-1.25 1.29 1.29 0 0 1 .33-.48 1.45 1.45 0 0 1 .54-.33A2.5 2.5 0 0 1 24.44 9l.1-1a.13.13 0 0 1 0-.06.11.11 0 0 1 .05 0l.09 0H25l.11 0 0 0a.17.17 0 0 1 0 .07l-.1.94.29 0 .29.08a1.33 1.33 0 0 1 .24.1l.15.09.06.07a.24.24 0 0 1 0 .08s0 .06 0 .1 0 .08 0 .13 0 .11 0 .15a.87.87 0 0 1 0 .1.09.09 0 0 1 0 .06L26 10a.4.4 0 0 1-.16-.06 2 2 0 0 0-.29-.13c-.11-.05-.24-.09-.39-.14a2 2 0 0 0-.51-.06 2.12 2.12 0 0 0-.54.06 1 1 0 0 0-.36.18.63.63 0 0 0-.2.26.8.8 0 0 0-.07.34.84.84 0 0 0 .13.47 1 1 0 0 0 .34.32 2.14 2.14 0 0 0 .48.23l.55.2a5.25 5.25 0 0 1 .55.22 1.72 1.72 0 0 1 .48.31 1.57 1.57 0 0 1 .34.46A1.63 1.63 0 0 1 26.5 13.33zM38.22 33.47a9.06 9.06 0 0 1-3.16-.63.51.51 0 0 1-.29-.57c0-.13.81-3.32 3.22-4.54s5.44.05 5.57.11a.49.49 0 0 1 .29.56c0 .14-.81 3.32-3.22 4.54A5.24 5.24 0 0 1 38.22 33.47zm-2.36-1.39a6.05 6.05 0 0 0 4.32 0 6 6 0 0 0 2.58-3.47 6.05 6.05 0 0 0-4.32 0A6 6 0 0 0 35.86 32.08zM33.06 30.09a6.76 6.76 0 0 1-4.25-1.29c-2.24-1.82-2.32-5.32-2.32-5.47a.48.48 0 0 1 .4-.49c.14 0 3.59-.67 5.83 1.15S35 29.32 35 29.47a.48.48 0 0 1-.4.49A9.25 9.25 0 0 1 33.06 30.09zM27.5 23.74A6.64 6.64 0 0 0 29.43 28a6.59 6.59 0 0 0 4.6 1 6.59 6.59 0 0 0-1.93-4.29A6.55 6.55 0 0 0 27.5 23.74z" fill="#2563eb" class="color000000 svgShape"></path>
</svg>
