<svg xmlns="http://www.w3.org/2000/svg" id="internship" viewBox="0 0 64 64">
  <path d="m56,14h-18v-5c0-1.65-1.35-3-3-3h-6c-1.65,0-3,1.35-3,3v5H8c-3.31,0-6,2.69-6,6v32c0,3.31,2.69,6,6,6h48c3.31,0,6-2.69,6-6V20c0-3.31-2.69-6-6-6Zm-23,2c0,.55-.45,1-1,1s-1-.45-1-1,.45-1,1-1,1,.45,1,1Zm27,36c0,2.21-1.79,4-4,4H8c-2.21,0-4-1.79-4-4V20c0-2.21,1.79-4,4-4h18v1c0,2.76,2.24,5,5,5h2c2.76,0,5-2.24,5-5v-1h18c2.21,0,4,1.79,4,4v32Z" fill="#2563eb" class="color000000 svgShape"></path>
  <path d="M30 25H10c-1.65 0-3 1.35-3 3v22c0 1.65 1.35 3 3 3h20c1.65 0 3-1.35 3-3v-22c0-1.65-1.35-3-3-3Zm-14 12v-.12c.83-.16 2.02-.56 2.96-1.54.98.58 2.75 1.42 5.04 1.62v.04c0 2.21-1.79 4-4 4s-4-1.79-4-4Zm15 13c0 .55-.45 1-1 1 0-4.21-2.62-7.82-6.3-9.28 1.4-1.1 2.3-2.8 2.3-4.72v-2c0-3.31-2.69-6-6-6s-6 2.69-6 6v2c0 1.92.9 3.62 2.3 4.72-3.68 1.46-6.3 5.07-6.3 9.28-.55 0-1-.45-1-1v-22c0-.55.45-1 1-1h20c.55 0 1 .45 1 1v22ZM56 28h-19c-.55 0-1 .45-1 1s.45 1 1 1h19c.55 0 1-.45 1-1s-.45-1-1-1ZM37 34h11c.55 0 1-.45 1-1s-.45-1-1-1h-11c-.55 0-1 .45-1 1s.45 1 1 1ZM56 40h-19c-.55 0-1 .45-1 1s.45 1 1 1h19c.55 0 1-.45 1-1s-.45-1-1-1ZM56 44h-19c-.55 0-1 .45-1 1s.45 1 1 1h19c.55 0 1-.45 1-1s-.45-1-1-1ZM47 48h-10c-.55 0-1 .45-1 1s.45 1 1 1h10c.55 0 1-.45 1-1s-.45-1-1-1Z" fill="#2563eb" class="color000000 svgShape"></path>
</svg>
