<svg xmlns="http://www.w3.org/2000/svg" viewBox="0 0 512 512" id="HumanResource">
  <path fill="#9b9fa7" fill-rule="evenodd" d="M329.897 298.236a159.199 159.199 0 0 1-26.866 29.577l73.052 71.609 27.811-28.661-73.997-72.525z" clip-rule="evenodd" class="colora79ba7 svgShape"></path>
  <path fill="#767a83" fill-rule="evenodd" d="M330.389 297.743c-1.436 4.712-4.114 8.293-7.952 10.663l72.568 72.093 8.887-9.738-73.503-73.018z" clip-rule="evenodd" class="color837683 svgShape"></path>
  <path fill="#84a6f1" fill-rule="evenodd" d="m468.588 492.371 31.387-32.346c5.513-5.681 5.373-14.837-.306-20.349l-86.934-84.358c-5.679-5.513-14.839-5.375-20.35.305l-31.387 32.347c-5.511 5.68-5.374 14.839.306 20.35l86.934 84.357c5.68 5.51 14.838 5.374 20.35-.306z" clip-rule="evenodd" class="colorf1ba84 svgShape"></path>
  <path fill="#6f93e3" fill-rule="evenodd" d="m399.873 355.317 86.934 84.358c5.68 5.513 5.819 14.668.306 20.349l-31.387 32.347a14.258 14.258 0 0 1-3.898 2.849c5.459 2.713 12.301 1.746 16.759-2.849l31.387-32.347c5.513-5.681 5.373-14.837-.307-20.349l-86.934-84.358c-4.484-4.353-11.137-5.183-16.452-2.544a14.225 14.225 0 0 1 3.592 2.544z" clip-rule="evenodd" class="colore3a76f svgShape"></path>
  <circle cx="211.266" cy="218.543" r="158.305" fill="#77a2ff" fill-rule="evenodd" clip-rule="evenodd" transform="rotate(-45.001 211.265 218.546)" class="colorffe177 svgShape"></circle>
  <circle cx="211.266" cy="218.541" r="125.04" fill="#767a83" fill-rule="evenodd" clip-rule="evenodd" class="color837683 svgShape"></circle>
  <path fill="#5e6168" fill-rule="evenodd" d="M314.076 218.541c0 25.578-7.68 49.363-20.86 69.173a125.67 125.67 0 0 1-17.591 21.035c-19.965 19.169-46.28 31.773-75.474 34.345 3.662.323 7.37.487 11.116.487a126.008 126.008 0 0 0 20.15-1.615c59.477-9.636 104.89-61.227 104.89-123.425 0-69.058-55.982-125.04-125.04-125.04-3.746 0-7.453.165-11.115.487 63.85 5.625 113.924 59.241 113.924 124.553z" clip-rule="evenodd" class="color685e68 svgShape"></path>
  <path fill="#8aaefe" fill-rule="evenodd" d="M211.267 230.6c-45.043 0-82.126 34.129-86.822 77.925 22.49 21.705 53.097 35.056 86.822 35.056 6.076 0 12.05-.433 17.894-1.271 26.593-3.812 50.483-15.994 68.922-33.788-4.69-43.805-41.767-77.922-86.816-77.922z" clip-rule="evenodd" class="color8ac9fe svgShape"></path>
  <path fill="#2563eb" fill-rule="evenodd" d="M200.153 231.301c51.977 6.605 72.923 45.934 77.739 93.066a125.587 125.587 0 0 0 20.19-15.845c-4.689-43.805-41.766-77.922-86.816-77.922a88.03 88.03 0 0 0-11.113.701z" clip-rule="evenodd" class="color60b7ff svgShape"></path>
  <path fill="#cddaf6" fill-rule="evenodd" d="M211.267 223.999c24.316 0 44.148-19.832 44.148-44.149 0-24.316-19.832-44.148-44.148-44.148-24.316 0-44.149 19.832-44.149 44.148.001 24.317 19.833 44.149 44.149 44.149z" clip-rule="evenodd" class="colorf6dccd svgShape"></path>
  <path fill="#bccdf1" fill-rule="evenodd" d="M244.3 179.851c0 22.5-16.832 41.069-38.591 43.801 1.82.229 3.675.347 5.557.347 24.383 0 44.149-19.766 44.149-44.149 0-24.382-19.766-44.148-44.149-44.148-1.882 0-3.737.118-5.557.347 21.76 2.732 38.591 21.301 38.591 43.802z" clip-rule="evenodd" class="colorf1cbbc svgShape"></path>
  <path fill-rule="evenodd" d="M211.239 101.502c64.539 0 117.048 52.5 117.048 117.04 0 27.5-9.53 52.81-25.476 72.809-8.586-29.89-31.184-53.37-60.01-63.419 12.502-9.529 20.617-24.581 20.617-41.48 0-28.76-23.4-52.15-52.179-52.15-28.731 0-52.131 23.39-52.131 52.15 0 16.899 8.114 31.95 20.617 41.48-28.826 10.049-51.424 33.529-60.01 63.419-15.946-19.999-25.476-45.309-25.476-72.809-.001-64.541 52.461-117.04 117-117.04zm-36.138 84.949c0 19.92 16.229 36.13 36.138 36.139h.047c19.909-.01 36.138-16.219 36.138-36.139 0-19.94-16.229-36.15-36.185-36.15-19.909 0-36.138 16.21-36.138 36.15zM132.924 305.42c20.758 18.729 48.216 30.161 78.315 30.161 30.1 0 57.604-11.431 78.363-30.161-6.039-38.36-39.016-66.819-78.315-66.83h-.047c-39.3.011-72.277 28.47-78.316 66.83zm211.357-86.879c0-73.361-59.68-133.04-133.042-133.04-73.361 0-133.042 59.678-133.042 133.04 0 73.348 59.68 133.04 133.042 133.04s133.042-59.691 133.042-133.04zM494.212 454.44l-31.373 32.35c-2.453 2.53-6.511 2.591-9.058.131l-86.902-84.351c-1.227-1.18-1.887-2.77-1.934-4.49a6.25 6.25 0 0 1 1.793-4.55l31.373-32.35a6.39 6.39 0 0 1 4.482-1.92h.094c1.699 0 3.255.63 4.482 1.789l86.902 84.36c2.547 2.452 2.595 6.512.141 9.031zM341.875 321.35l37.412 36.281-16.701 17.17-36.846-35.761a165.771 165.771 0 0 0 16.135-17.69zM60.931 218.541c0 82.869 67.465 150.298 150.309 150.298 82.892 0 150.309-67.429 150.309-150.298 0-82.88-67.417-150.312-150.309-150.312-82.845.001-150.309 67.432-150.309 150.312zm444.321 215.38-86.949-84.351c-4.293-4.159-9.907-6.4-15.946-6.31-4.105.07-8.02 1.25-11.464 3.371l-39.629-38.461c15.285-23.779 24.674-51.68 26.089-81.629h37.176c4.387 0 7.973-3.59 7.973-8 0-4.421-3.586-8-7.973-8h-37.176C373.296 125.19 304.604 56.49 219.26 52.431V15.293c0-4.421-3.586-8.001-8.02-8.001-4.387 0-7.973 3.581-7.973 8.001v37.138c-85.345 4.06-154.036 72.759-158.14 158.111H7.997c-4.387 0-7.973 3.579-7.973 8 0 4.41 3.586 8 7.973 8h37.129c4.104 85.338 72.795 154.039 158.14 158.099v37.14c0 4.419 3.586 8 7.973 8 4.435 0 8.02-3.581 8.02-8v-37.14c35.478-1.681 68.078-14.529 94.309-35.099l38.403 37.23c-2.029 3.47-3.114 7.419-3.019 11.549.094 5.989 2.5 11.581 6.747 15.731l86.949 84.36c4.34 4.209 10.002 6.31 15.616 6.31 5.803 0 11.653-2.27 16.04-6.791l31.421-32.339c8.585-8.861 8.349-23.072-.473-31.671z" clip-rule="evenodd" fill="#000000" class="color000000 svgShape"></path>
</svg>
