<svg xmlns="http://www.w3.org/2000/svg" viewBox="0 0 3839.994 3839.994" id="ViralMarketing">
  <path fill="#2563eb" d="M3592.495 3419.995v-922.499h240V959.999h-974.999V0H982.499v959.999H0v1545.957l262.5-.601v914.64H7.5v419.999h3832.494v-419.999h-247.499zm119.999-2339.997v1297.498h-543.91l-278.261 291.167-275.5-285.007-537.326 2.021v-571.874l169.812-178.806h309.027c17.19 60 53.068 116.854 101.27 157.599-148.713 69.331-256.615 211.393-274.887 384.596l-6.995 65.304h972.098l-6.995-65.555c-18.27-173.192-126.161-315.865-274.859-385.2 68.829-58.169 112.65-144.861 112.65-241.823 0-174.712-142.306-316.753-317.017-316.753-1.318 0-4.105.169-4.105.187v-153.354h854.998zm-854.998 554.999v-281.612s2.783-.128 4.105-.128c108.538 0 196.931 88.308 196.931 196.845 0 108.537-88.265 197.347-196.802 197.347-78.538 0-146.372-44.952-177.921-112.452h173.687zm4.277 230.479c162.605 0 301.442 107.021 346.442 257.021H2515.33c45.001-150 183.838-257.021 346.443-257.021zM1102.498 120h1634.998v1394.998H2196.2l-278.261 289.097-276.807-286.041-538.633.987V120zM907.235 1746.948c-108.537 0-196.845-88.308-196.845-196.845 0-108.537 88.48-196.845 197.018-196.845 26.525 0 52.591 5.321 75.091 14.886v271.175l100.36-.231c-32.536 63.937-99.104 107.86-175.624 107.86zM120 1079.998h862.499v162.239c-22.5-5.859-49.283-8.979-75.091-8.979-174.712 0-316.931 142.134-316.931 316.845 0 96.961 43.778 183.838 112.607 242.006-148.698 69.335-256.61 211.64-274.881 384.832l-7.016 65.555h972.098l-6.995-65.555c-18.27-173.188-126.161-315.865-274.859-385.2 46.97-39.701 82.26-92.592 99.941-153.134l378.546-.78 165.08 170.779v568.89h-540.951l-278.261 291.167-276.98-285.007L120 2385.677V1079.998zm787.235 785.478c162.605 0 301.442 107.021 346.442 257.021H560.793c45-150 183.837-257.021 346.442-257.021zm-524.736 639.601 225.952-.52 327.872 336.914 328.831-343.974h609.843v-565.07l44.443 43.974 38.057-37.709v567.263l606.627-1.399 327.304 336.914 328.264-343.974h252.802v922.499H382.499v-914.918zm3337.495 1214.917H127.5v-180h3592.495v180z" class="color282d35 svgShape"></path>
  <path fill="#2563eb" d="M2399.052 1237.374c-18.27-173.192-126.161-316.9-274.859-386.235 68.829-58.169 112.65-145.378 112.65-242.34 0-174.712-142.134-317.019-316.845-317.019s-316.845 142.058-316.845 316.769c0 96.962 43.821 183.796 112.65 241.965-148.698 69.335-256.589 213.689-274.859 386.88l-6.995 67.604h972.098l-6.995-67.624zm-675.9-628.908c0-108.545 88.308-196.853 196.845-196.853s196.845 88.308 196.845 196.853c0 108.537-88.308 196.845-196.845 196.845s-196.845-88.308-196.845-196.845zm-149.597 576.532c45-150 183.838-257.021 346.442-257.021s301.442 107.021 346.442 257.021h-692.884z" class="color282d35 svgShape"></path>
</svg>
