<svg xmlns="http://www.w3.org/2000/svg" xml:space="preserve" viewBox="0 0 512 512" enable-background="new 0 0 512 512" id="webdesigntool">
  <g id="_x30_7_Web_Design_Tool" fill="#595bd4" class="color000000 svgShape">
    <g fill="#595bd4" class="color000000 svgShape">
      <path d="M498.798,34.32l-18.97-18.97c-9.607-9.607-25.146-9.607-34.753,0l-23.577,23.626H42.595
			c-20.195,0-36.567,16.372-36.567,36.567v272.143c0,20.146,16.372,36.567,36.567,36.567h151.512v57.35h-17.205
			c-17.401,0-31.518,14.166-31.518,31.567v20.881h-19.411c-2.696,0-4.902,2.206-4.902,4.902c0,2.696,2.206,4.902,4.902,4.902
			h224.989c2.696,0,4.902-2.206,4.902-4.902c0-2.696-2.206-4.902-4.902-4.902h-19.411v-20.881c0-17.401-14.117-31.567-31.518-31.567
			h-17.205v-57.35h151.512c20.195,0,36.567-16.421,36.567-36.567V218.036c0-2.745-2.157-4.902-4.902-4.902
			c-2.696,0-4.902,2.157-4.902,4.902v91.956H15.832V75.543c0-14.754,12.009-26.763,26.764-26.763h369.099
			c-0.245,0.245-0.49,0.49-0.735,0.735l-1.47,1.47c-0.098,0.098-0.196,0.196-0.245,0.245c-0.098,0.098-0.147,0.147-0.196,0.196
			c-0.049,0.049-0.098,0.098-0.098,0.098c-0.049,0.049-0.049,0.049-0.049,0.049c-7.353,7.304-32.106,32.057-104.799,104.75
			c-0.441,0.49-0.833,1.029-1.078,1.618l-33.283,80.045c-0.735,1.814-0.343,3.922,1.079,5.343c1.421,1.421,3.529,1.814,5.343,1.078
			l80.045-33.283c0.588-0.245,1.127-0.637,1.569-1.078c41.42-41.42,62.007-62.007,103.328-103.328v46.959
			c0,2.696,2.206,4.902,4.902,4.902c2.745,0,4.902-2.206,4.902-4.902V96.915c0.539-0.49,25.636-25.587,28.185-28.234
			C508.651,58.779,507.965,43.486,498.798,34.32z M273.025,441.604h-69.114v-57.35h69.114V441.604z M461.104,319.796v27.891
			c0,14.754-12.009,26.763-26.763,26.763H42.595c-14.754,0-26.764-12.009-26.764-26.763v-27.891H461.104z M426.89,47.407
			l16.421,16.47L331.551,175.685l-16.47-16.47L426.89,47.407z M321.993,214.703l-22.548-22.597l10.196-24.509l36.861,36.91
			L321.993,214.703z M354.933,199.066l-16.47-16.47L450.271,70.788l16.47,16.47L354.933,199.066z" fill="#595bd4" class="color000000 svgShape"></path>
      <path d="M226.931 352.035h23.075c2.707 0 4.902-2.195 4.902-4.902 0-2.707-2.195-4.902-4.902-4.902h-23.075c-2.707 0-4.902 2.195-4.902 4.902C222.03 349.84 224.224 352.035 226.931 352.035zM245.109 211.635c2.707 0 4.902-2.195 4.902-4.902v-51.162c0-2.707-2.195-4.902-4.902-4.902h-11.388c-.864-2.365-1.831-4.686-2.891-6.948l8.047-8.049c1.915-1.912 1.915-5.014.002-6.929L202.686 92.51c-.919-.921-2.166-1.438-3.466-1.438-.002 0-.002 0-.002 0-1.3 0-2.547.517-3.466 1.436l-8.087 8.085c-2.276-1.067-4.586-2.027-6.912-2.872V86.313c0-2.707-2.195-4.902-4.902-4.902h-51.2c-2.707 0-4.902 2.195-4.902 4.902v11.421c-2.369.864-4.677 1.819-6.91 2.863l-8.09-8.09c-1.833-1.836-5.091-1.841-6.934.002L61.62 128.744c-1.912 1.915-1.912 5.017.002 6.929l8.085 8.085c-1.063 2.264-2.03 4.574-2.886 6.912H55.429c-2.707 0-4.902 2.195-4.902 4.902v51.162c0 2.707 2.195 4.902 4.902 4.902h11.407c.842 2.324 1.802 4.634 2.874 6.912l-8.087 8.087c-1.915 1.912-1.915 5.014-.002 6.929l36.196 36.234c.919.921 2.166 1.438 3.466 1.438.002 0 .002 0 .002 0 1.3 0 2.547-.517 3.466-1.436l8.092-8.09c2.231 1.041 4.54 1.999 6.907 2.86v11.424c0 2.707 2.195 4.902 4.902 4.902h51.2c2.707 0 4.902-2.195 4.902-4.902v-11.409c2.322-.84 4.634-1.8 6.912-2.872l8.087 8.087c1.841 1.841 5.096 1.843 6.934-.002l36.193-36.234c1.912-1.915 1.912-5.014-.002-6.929l-8.049-8.051c1.048-2.247 2.006-4.567 2.867-6.948H245.109zM230.182 201.831c-2.137 0-4.031 1.386-4.674 3.425-1.338 4.234-3.011 8.281-4.974 12.032-.996 1.9-.639 4.224.876 5.739l7.073 7.075L199.216 259.4l-7.108-7.108c-1.513-1.517-3.837-1.872-5.737-.878-3.908 2.046-7.937 3.717-11.972 4.969-2.051.637-3.449 2.535-3.449 4.682v10.028h-41.397v-10.028c0-2.133-1.381-4.023-3.413-4.67-4.227-1.348-8.267-3.023-12.008-4.981-1.9-.993-4.227-.639-5.737.878l-7.108 7.108L72.02 230.102l7.111-7.113c1.515-1.515 1.872-3.839.876-5.739-2.044-3.904-3.715-7.932-4.966-11.969-.637-2.051-2.535-3.449-4.682-3.449H60.33v-41.358h9.99c2.133 0 4.021-1.381 4.67-3.413 1.309-4.105 2.999-8.145 5.019-12.008.993-1.898.637-4.222-.878-5.737l-7.111-7.111 29.267-29.298 7.108 7.108c1.51 1.515 3.844 1.876 5.739.876 3.736-1.955 7.776-3.631 12.005-4.981 2.032-.646 3.413-2.537 3.413-4.67V91.215h41.397v10.026c0 2.147 1.398 4.045 3.447 4.682 4.05 1.259 8.078 2.93 11.972 4.969 1.896 1 4.227.639 5.739-.876l7.108-7.108 29.264 29.298-7.07 7.073c-1.515 1.515-1.872 3.839-.878 5.737 2.001 3.822 3.688 7.874 5.019 12.046.649 2.032 2.537 3.413 4.67 3.413h9.988v41.358H230.182z" fill="#595bd4" class="color000000 svgShape"></path>
      <path d="M150.28 133.222c-26.435 0-47.94 21.498-47.94 47.921 0 26.435 21.505 47.943 47.94 47.943 26.423 0 47.921-21.507 47.921-47.943C198.201 154.719 176.703 133.222 150.28 133.222zM150.28 219.282c-21.029 0-38.137-17.108-38.137-38.139 0-21.019 17.108-38.118 38.137-38.118 21.019 0 38.118 17.099 38.118 38.118C188.397 202.174 171.299 219.282 150.28 219.282zM434.149 252.562c0-2.707-2.195-4.902-4.902-4.902h-92.841c-2.707 0-4.902 2.195-4.902 4.902s2.195 4.902 4.902 4.902h92.841C431.954 257.464 434.149 255.269 434.149 252.562zM336.406 274.421c-2.707 0-4.902 2.195-4.902 4.902 0 2.707 2.195 4.902 4.902 4.902h51.277c2.707 0 4.902-2.195 4.902-4.902 0-2.707-2.195-4.902-4.902-4.902H336.406z" fill="#595bd4" class="color000000 svgShape"></path>
    </g>
  </g>
</svg>
